# Blender v2.76 (sub 0) OBJ File: 'streetlamp.blend'
# www.blender.org
mtllib lighting_streetlamp.mtl
o nodebox2
v 0.187500 -0.500000 -0.187500
v 0.187500 -0.500000 0.187500
v 0.187500 0.125000 0.187500
v 0.187500 0.125000 -0.187500
v -0.187500 -0.500000 -0.187500
v -0.187500 -0.500000 0.187500
v -0.187500 0.125000 0.187500
v -0.187500 0.125000 -0.187500
v 0.062500 0.125000 -0.062500
v 0.062500 0.125000 0.062500
v 0.062500 0.250000 0.062500
v 0.062500 0.250000 -0.062500
v -0.062500 0.125000 -0.062500
v -0.062500 0.125000 0.062500
v -0.062500 0.250000 0.062500
v -0.062500 0.250000 -0.062500
v 0.312500 0.000000 -0.312500
v 0.312500 -0.000000 0.312500
v 0.312500 0.062500 0.312500
v 0.312500 0.062500 -0.312500
v -0.312500 0.000000 -0.312500
v -0.312500 -0.000000 0.312500
v -0.312500 0.062500 0.312500
v -0.312500 0.062500 -0.312500
v 0.125000 0.125000 -0.125000
v 0.125000 0.125000 0.125000
v 0.125000 0.187500 0.125000
v 0.125000 0.187500 -0.125000
v -0.125000 0.125000 -0.125000
v -0.125000 0.125000 0.125000
v -0.125000 0.187500 0.125000
v -0.125000 0.187500 -0.125000
vt 0.750000 0.000000
vt 0.750000 0.626654
vt 0.250000 0.666667
vt 0.250000 0.000000
vt 0.250078 -0.025015
vt 0.249923 0.724984
vt 0.749923 0.750077
vt 0.750077 0.000077
vt 0.250000 0.750000
vt 0.750000 0.750000
vt 0.999900 0.000100
vt 0.999900 0.999900
vt 0.000100 0.999900
vt 0.000100 0.000100
vt 0.000000 0.000000
vn 1.000000 0.000000 0.000000
vn 0.000000 0.000000 -1.000000
vn 0.000000 -0.000000 1.000000
vn 0.000000 -1.000000 0.000000
vn 0.000000 1.000000 0.000000
vn -1.000000 -0.000000 0.000000
usemtl none
s off
f 1/1/1 4/2/1 3/3/1 2/4/1
f 5/5/1 8/6/1 7/7/1 6/8/1
f 1/5/2 5/8/2 8/7/2 4/6/2
f 2/4/3 3/9/3 7/10/3 6/1/3
usemtl none_lighting_streetlamp_top.png
f 1/11/4 2/12/4 6/13/4 5/14/4
f 4/15/5 8/15/5 7/15/5 3/15/5
f 9/15/1 12/15/1 11/15/1 10/15/1
f 13/15/6 14/15/6 15/15/6 16/15/6
f 9/15/2 13/15/2 16/15/2 12/15/2
f 10/15/3 11/15/3 15/15/3 14/15/3
f 12/15/5 16/15/5 15/15/5 11/15/5
f 17/15/1 20/15/1 19/15/1 18/15/1
f 21/15/6 22/15/6 23/15/6 24/15/6
f 17/15/2 21/15/2 24/15/2 20/15/2
f 18/15/3 19/15/3 23/15/3 22/15/3
f 17/15/4 18/15/4 22/15/4 21/15/4
f 20/15/5 24/15/5 23/15/5 19/15/5
f 25/15/1 28/15/1 27/15/1 26/15/1
f 29/15/6 30/15/6 31/15/6 32/15/6
f 25/15/2 29/15/2 32/15/2 28/15/2
f 26/15/3 27/15/3 31/15/3 30/15/3
f 28/15/5 32/15/5 31/15/5 27/15/5
usemtl none_NONE
f 9/15/4 10/15/4 14/15/4 13/15/4
f 25/15/4 26/15/4 30/15/4 29/15/4
