# Blender v2.76 (sub 0) OBJ File: ''
# www.blender.org
mtllib lighting_streetlamp.mtl
o Cube.000_Cube.007
v -0.189706 -0.186089 0.186683
v -0.189706 -0.186089 0.186683
v -0.189706 -0.186089 -0.192553
v -0.189706 -0.186089 -0.192553
v 0.189529 -0.186089 0.186683
v 0.189529 -0.186089 0.186683
v 0.189529 -0.186089 -0.192553
v 0.189529 -0.186089 -0.192553
vn 0.000000 0.000000 1.000000
vn 0.000000 -1.000000 0.000000
vn 0.000000 1.000000 0.000000
usemtl None
s off
f 2//1 4//1 3//1 1//1
f 4//1 8//1 7//1 3//1
f 8//1 6//1 5//1 7//1
f 6//1 2//1 1//1 5//1
f 1//2 3//2 7//2 5//2
f 6//3 8//3 4//3 2//3
o Cube.004_Cube.006
v -0.189706 0.126155 0.186683
v -0.189706 0.063324 0.186683
v -0.189706 0.126155 -0.192553
v -0.189706 0.063324 -0.192553
v 0.189529 0.126155 0.186683
v 0.189529 0.063324 0.186683
v 0.189529 0.126155 -0.192553
v 0.189529 0.063324 -0.192553
v -0.312909 0.063414 0.309885
v -0.312909 -0.001675 0.309885
v -0.312909 0.063414 -0.315755
v -0.312909 -0.001675 -0.315755
v 0.312732 0.063414 0.309885
v 0.312732 -0.001675 0.309885
v 0.312732 0.063414 -0.315755
v 0.312732 -0.001675 -0.315755
v -0.062905 0.043896 0.062661
v -0.062905 0.253648 0.062661
v -0.062905 0.043896 -0.063941
v -0.062905 0.253648 -0.063941
v 0.063697 0.043896 0.062661
v 0.063697 0.253648 0.062661
v 0.063697 0.043896 -0.063941
v 0.063697 0.253648 -0.063941
v -0.125286 -0.227940 0.125041
v -0.125286 0.188513 0.125041
v -0.125286 -0.227940 -0.126322
v -0.125286 0.188513 -0.126322
v 0.126077 -0.227940 0.125041
v 0.126077 0.188513 0.125041
v 0.126077 -0.227940 -0.126322
v 0.126077 0.188513 -0.126322
v -0.189706 -0.492412 0.186683
v -0.189706 0.066084 0.186683
v -0.189706 -0.492412 -0.192553
v -0.189706 0.066084 -0.192553
v 0.189529 -0.492412 0.186683
v 0.189529 0.066084 0.186683
v 0.189529 -0.492412 -0.192553
v 0.189529 0.066084 -0.192553
vt 0.000000 0.000000
vt 0.999900 0.999900
vt 0.000100 0.999900
vt 0.000100 0.000100
vt 0.999900 0.000100
vt 0.000000 1.000000
vt 1.000000 1.000000
vt 1.000000 0.000000
vn 1.000000 0.000000 0.000000
vn 0.000000 0.000000 1.000000
vn -1.000000 0.000000 0.000000
vn 0.000000 0.000000 -1.000000
vn 0.000000 -1.000000 0.000000
vn 0.000000 1.000000 0.000000
usemtl None
s off
f 10/1/4 12/1/4 11/1/4 9/1/4
f 12/1/5 16/1/5 15/1/5 11/1/5
f 16/1/6 14/1/6 13/1/6 15/1/6
f 14/1/7 10/1/7 9/1/7 13/1/7
f 9/1/8 11/1/8 15/1/8 13/1/8
f 14/1/9 16/1/9 12/1/9 10/1/9
f 18/1/4 20/1/4 19/1/4 17/1/4
f 20/1/5 24/1/5 23/1/5 19/1/5
f 24/2/6 22/3/6 21/4/6 23/5/6
f 22/1/7 18/1/7 17/1/7 21/1/7
f 17/1/8 19/1/8 23/1/8 21/1/8
f 22/1/9 24/1/9 20/1/9 18/1/9
f 26/1/4 25/1/4 27/1/4 28/1/4
f 28/1/5 27/1/5 31/1/5 32/1/5
f 32/1/6 31/1/6 29/1/6 30/1/6
f 30/1/7 29/1/7 25/1/7 26/1/7
f 25/1/9 29/1/9 31/1/9 27/1/9
f 30/1/8 26/1/8 28/1/8 32/1/8
f 34/1/4 33/1/4 35/1/4 36/1/4
f 36/1/5 35/1/5 39/1/5 40/1/5
f 40/1/6 39/1/6 37/1/6 38/1/6
f 38/1/7 37/1/7 33/1/7 34/1/7
f 33/1/9 37/1/9 39/1/9 35/1/9
f 38/1/8 34/1/8 36/1/8 40/1/8
f 42/1/4 41/6/4 43/7/4 44/8/4
f 44/1/5 43/6/5 47/7/5 48/8/5
f 48/1/6 47/6/6 45/7/6 46/8/6
f 46/1/7 45/6/7 41/7/7 42/8/7
f 41/1/9 45/6/9 47/7/9 43/8/9
f 46/1/8 42/6/8 44/7/8 48/8/8
