# Blender v2.76 (sub 0) OBJ File: 'oil_lamp_wall.blend'
# www.blender.org
mtllib oil_lamp_wall.mtl
o Cube_Cube.001_Cube_Cube.001_Material.001
v 0.062500 -0.419546 0.132735
v 0.062500 -0.294546 0.132509
v -0.062500 -0.294546 0.132509
v -0.062500 -0.419546 0.132735
v -0.062500 -0.420562 -0.429764
v 0.062500 -0.420562 -0.429764
v 0.062500 -0.295562 -0.429990
v -0.062500 -0.295562 -0.429990
vt 0.562500 0.500000
vt 0.562500 0.625000
vt 0.437500 0.625000
vt 0.437500 0.500000
vt 0.437500 0.000000
vt 0.562500 0.000000
vt 0.562500 0.125000
vt 0.437500 0.125000
vn 0.000000 0.001800 1.000000
vn 0.000000 1.000000 -0.001800
vn 1.000000 0.000000 0.000000
usemtl Material.006
s 1
f 1/1/1 2/2/1 3/3/1 4/4/1
f 5/5/1 6/6/1 7/7/1 8/8/1
f 1/2/2 6/6/2 5/5/2 4/3/2
f 2/3/3 1/2/3 6/6/3 7/5/3
f 3/2/2 2/3/2 7/5/2 8/6/2
f 4/3/3 5/5/3 8/6/3 3/2/3
o Cube_Cube.001_Cube_Cube.001_Material.002
v -0.353553 -0.711615 -0.429238
v -0.353553 -0.709808 0.570760
v 0.353553 -0.002703 0.569483
v 0.353553 -0.004510 -0.430516
v -0.353553 -0.004510 -0.430516
v 0.353553 -0.711615 -0.429238
v 0.353553 -0.709808 0.570760
v -0.353553 -0.002703 0.569483
vt 1.000000 0.000000
vt 1.000000 1.000000
vt 0.000000 1.000000
vt 0.000000 0.000000
vn -0.707100 0.707100 -0.001300
vn -0.707100 -0.707100 0.001300
usemtl Material.005
s 1
f 9/9/4 10/10/4 11/11/4 12/12/4
f 13/12/5 14/9/5 15/10/5 16/11/5
