# Blender v2.76 (sub 0) OBJ File: 'truly_final_small_chest_open.blend'
# www.blender.org
mtllib truly_final_small_chest_open.mtl
o Cube.005
v -0.499687 0.119014 0.502453
v -0.499687 0.244700 0.502453
v -0.499687 0.119014 0.439511
v -0.499687 0.244700 0.439511
v 0.499687 0.119014 0.502453
v 0.499687 0.244700 0.502453
v 0.499687 0.119014 0.439511
v 0.499687 0.244700 0.439511
v -0.499687 -0.004924 0.439698
v -0.499687 0.368638 0.439698
v -0.499687 -0.004924 0.376756
v -0.499687 0.368638 0.376756
v 0.499687 -0.004924 0.439698
v 0.499687 0.368638 0.439698
v 0.499687 -0.004924 0.376756
v 0.499687 0.368638 0.376756
v -0.499687 -0.068656 0.377005
v -0.499687 0.432370 0.377005
v -0.499687 -0.068656 0.310735
v -0.499687 0.432370 0.310735
v 0.499687 -0.068656 0.377005
v 0.499687 0.432370 0.377005
v 0.499687 -0.068656 0.310735
v 0.499687 0.432370 0.310735
v -0.499687 -0.128038 0.310739
v -0.499687 0.497906 0.310739
v -0.499687 -0.128038 0.244468
v -0.499687 0.497906 0.244468
v 0.499687 -0.128038 0.310739
v 0.499687 0.497906 0.310739
v 0.499687 -0.128038 0.244468
v 0.499687 0.497906 0.244468
v 0.499687 0.432370 0.249623
v -0.499687 0.432370 0.249623
v 0.499687 -0.128038 0.249623
v -0.499687 -0.128038 0.249623
v -0.499687 -0.516070 0.249464
v 0.499687 -0.516070 0.249464
v 0.499687 -0.516070 -0.374536
v 0.499687 -0.127930 -0.374536
v -0.499687 -0.127930 -0.374536
v -0.499687 -0.516070 -0.374536
v 0.499687 0.119014 0.441337
v -0.499687 0.119014 0.441337
vt 0.000000 0.687500
vt -0.000000 0.625000
vt 1.000000 0.625000
vt 1.000000 0.687500
vt -0.000000 0.562500
vt 1.000000 0.562500
vt 1.000000 0.500000
vt 0.000000 0.500000
vt 1.000000 0.437500
vt 0.000000 0.437500
vt 1.000000 0.375000
vt 0.000000 0.375000
vt 0.000000 0.000000
vt 1.000000 0.000000
vt 1.000000 0.812500
vt 0.000000 0.812500
vt -0.000000 0.187500
vt 1.000000 0.187500
vt -0.000000 0.312500
vt 1.000000 0.312500
vt 0.000000 0.250000
vt 1.000000 0.250000
vt 1.000000 0.750000
vt 0.000000 0.750000
vt 0.562500 0.625000
vt 0.437500 0.625000
vt 0.437500 0.562500
vt 0.562500 0.562500
vt 0.312500 0.562500
vt 0.312500 0.500000
vt 0.687500 0.500000
vt 0.687500 0.562500
vt 0.250000 0.500000
vt 0.250000 0.437500
vt 0.750000 0.437500
vt 0.750000 0.500000
vt 0.187500 0.437500
vt 0.187500 0.375000
vt 0.812500 0.375000
vt 0.812500 0.437500
vt 0.187500 -0.000000
vt 0.812500 0.000000
vt 1.000000 1.000000
vt 0.000000 1.000000
vn 0.000000 1.000000 0.000000
vn 0.000000 0.000000 -1.000000
vn 0.000000 1.000000 0.000200
vn 0.000000 0.000000 1.000000
vn 0.000000 -1.000000 0.000000
vn 0.000000 -0.000400 1.000000
vn -1.000000 0.000000 0.000000
vn 1.000000 0.000000 0.000000
usemtl None
s off
f 6/1/1 8/2/1 4/3/1 2/4/1
f 14/2/1 16/5/1 12/6/1 10/3/1
f 22/7/1 24/6/1 20/5/1 18/8/1
f 30/9/1 32/7/1 28/8/1 26/10/1
f 41/11/2 40/12/2 39/13/2 42/14/2
usemtl None_wood_chest_inside.png
f 28/15/2 32/16/2 31/17/2 27/18/2
f 35/16/3 40/17/3 41/18/3 36/15/3
usemtl None_wood_chest_top.png
f 6/10/4 2/9/4 1/6/4 5/5/4
f 14/19/4 10/20/4 9/4/4 13/1/4
f 22/21/4 18/22/4 17/23/4 21/24/4
f 30/17/4 26/18/4 25/15/4 29/16/4
usemtl None_wood_chest_back.png
f 1/6/5 3/3/5 7/2/5 5/5/5
f 9/7/5 11/6/5 15/5/5 13/8/5
f 17/8/5 19/10/5 23/9/5 21/7/5
f 25/11/5 27/9/5 31/10/5 29/12/5
f 36/12/6 37/13/6 38/14/6 35/11/6
usemtl None_wood_chest_side.png
f 2/25/7 4/26/7 3/27/7 1/28/7
f 8/28/8 6/25/8 5/26/8 7/27/8
f 10/29/7 12/30/7 11/31/7 9/32/7
f 16/31/8 14/32/8 13/29/8 15/30/8
f 18/33/7 20/34/7 19/35/7 17/36/7
f 24/35/8 22/36/8 21/33/8 23/34/8
f 26/37/7 28/38/7 27/39/7 25/40/7
f 32/37/8 30/38/8 29/39/8 31/40/8
f 37/18/5 42/15/5 39/16/5 38/17/5
f 36/41/7 41/42/7 42/39/7 37/38/7
f 35/42/8 38/39/8 39/38/8 40/41/8
usemtl None_NONE
f 4/13/2 8/14/2 7/43/2 3/44/2
f 12/13/2 16/14/2 15/43/2 11/44/2
f 20/13/2 24/14/2 23/43/2 19/44/2
l 33 34
l 43 44
