# Blender v2.76 (sub 0) OBJ File: 'newest_truly_truly_final_small_chest_open.blend'
# www.blender.org
mtllib again_newest_truly_truly_final_small_chest_open.mtl
o Cube.001_Cube.006
v -0.499687 0.119014 0.502453
v -0.499687 0.244700 0.502453
v -0.499687 0.119014 0.439511
v -0.499687 0.244700 0.439511
v 0.499687 0.119014 0.502453
v 0.499687 0.244700 0.502453
v 0.499687 0.119014 0.439511
v 0.499687 0.244700 0.439511
v -0.499687 -0.004924 0.439698
v -0.499687 0.368638 0.439698
v -0.499687 -0.004924 0.376756
v -0.499687 0.368638 0.376756
v 0.499687 -0.004924 0.439698
v 0.499687 0.368638 0.439698
v 0.499687 -0.004924 0.376756
v 0.499687 0.368638 0.376756
v -0.499687 -0.068656 0.377005
v -0.499687 0.432370 0.377005
v -0.499687 -0.068656 0.310735
v -0.499687 0.432370 0.310735
v 0.499687 -0.068656 0.377005
v 0.499687 0.432370 0.377005
v 0.499687 -0.068656 0.310735
v 0.499687 0.432370 0.310735
v -0.499687 -0.128038 0.310739
v -0.499687 0.497906 0.310739
v -0.499687 -0.128038 0.244468
v -0.499687 0.497906 0.244468
v 0.499687 -0.128038 0.310739
v 0.499687 0.497906 0.310739
v 0.499687 -0.128038 0.244468
v 0.499687 0.497906 0.244468
v 0.499687 0.432370 0.249623
v -0.499687 0.432370 0.249623
v 0.499687 -0.128038 0.249623
v -0.499687 -0.128038 0.249623
v -0.499687 -0.516070 0.249464
v 0.499687 -0.516070 0.249464
v 0.499687 -0.516070 -0.374536
v 0.499687 -0.127930 -0.374536
v -0.499687 -0.127930 -0.374536
v -0.499687 -0.516070 -0.374536
v 0.499687 0.119014 0.441337
v -0.499687 0.119014 0.441337
vt 0.088412 0.411212
vt 0.274518 0.411212
vt 0.274518 0.708982
vt 0.088412 0.708982
vt 0.333768 0.750218
vt 0.333769 0.542428
vt 0.666231 0.542428
vt 0.666231 0.750218
vt 0.874891 0.794387
vt 0.667102 0.794387
vt 0.667102 0.669713
vt 0.874891 0.669713
vt 0.667102 0.668843
vt 0.667102 0.544169
vt 0.874891 0.544169
vt 0.874891 0.668843
vt 0.999565 0.293081
vt 0.999565 0.417755
vt 0.667102 0.417755
vt 0.667102 0.293081
vt 0.667102 0.418625
vt 0.999565 0.418625
vt 0.999565 0.543299
vt 0.667102 0.543299
vt 0.122819 0.123635
vt 0.901363 0.088412
vt 0.901363 0.185730
vt 0.157226 0.158042
vt 0.999565 0.292211
vt 0.667102 0.292211
vt 0.667102 0.167537
vt 0.999565 0.167537
vt 0.999565 0.166667
vt 0.667102 0.166667
vt 0.667102 0.000435
vt 0.999565 0.000435
vt 0.666231 0.958877
vt 0.333768 0.958877
vt 0.333769 0.751088
vt 0.666231 0.751088
vt 0.666231 0.332898
vt 0.333768 0.332898
vt 0.333769 0.000435
vt 0.666231 0.000435
vt 0.332898 0.332898
vt 0.000435 0.332898
vt 0.000435 0.000435
vt 0.332898 0.000435
vt 0.332898 0.666231
vt 0.000435 0.666231
vt 0.000435 0.333768
vt 0.332898 0.333769
vt 0.451341 0.708982
vt 0.451341 0.411212
vt 0.637447 0.411212
vt 0.637447 0.708982
vt 0.911588 0.459871
vt 0.814270 0.459871
vt 0.814270 0.411212
vt 0.911588 0.411212
vt 0.875761 0.564948
vt 0.875761 0.544169
vt 0.917319 0.544169
vt 0.917319 0.564948
vt 0.791775 0.968451
vt 0.791775 0.989230
vt 0.667102 0.989230
vt 0.667102 0.968451
vt 0.834204 0.945932
vt 0.834204 0.925153
vt 0.958877 0.925153
vt 0.958877 0.945932
vt 0.833333 0.925153
vt 0.833333 0.945932
vt 0.667102 0.945932
vt 0.667102 0.925153
vt 0.667102 0.967581
vt 0.667102 0.946802
vt 0.833333 0.946802
vt 0.833333 0.967581
vt 0.874891 0.881854
vt 0.874891 0.902633
vt 0.667102 0.902633
vt 0.667102 0.881854
vt 0.874891 0.903504
vt 0.874891 0.924282
vt 0.667102 0.924282
vt 0.667102 0.903504
vt 0.901363 0.234389
vt 0.088412 0.226856
vt 0.333768 0.980526
vt 0.333768 0.959747
vt 0.666231 0.959747
vt 0.666231 0.980526
vt 0.999565 0.816906
vt 0.999565 0.837685
vt 0.667102 0.837685
vt 0.667102 0.816906
vt 0.000435 0.959748
vt 0.000435 0.938969
vt 0.332898 0.938969
vt 0.332898 0.959748
vt 0.999565 0.795257
vt 0.999565 0.816036
vt 0.667102 0.816036
vt 0.667102 0.795257
vt 0.999565 0.860205
vt 0.999565 0.880984
vt 0.667102 0.880984
vt 0.667102 0.860205
vt 0.667102 0.859335
vt 0.667102 0.838556
vt 0.999565 0.838556
vt 0.999565 0.859335
vt 0.000435 0.981397
vt 0.000435 0.960618
vt 0.332898 0.960618
vt 0.332898 0.981397
vn 0.000000 1.000000 0.000200
vn 0.000000 -1.000000 0.000000
vn -1.000000 0.000000 0.000000
vn 1.000000 0.000000 0.000000
vn 0.000000 -0.000400 1.000000
vn 0.000000 0.000000 -1.000000
vn 0.000000 0.000000 1.000000
vn 0.000000 1.000000 0.000000
usemtl inside.001
s off
f 35/1/1 40/2/1 41/3/1 36/4/1
usemtl bottom
f 37/5/2 42/6/2 39/7/2 38/8/2
usemtl side.001
f 36/9/3 41/10/3 42/11/3 37/12/3
f 35/13/4 38/14/4 39/15/4 40/16/4
usemtl back
f 36/17/5 37/18/5 38/19/5 35/20/5
usemtl front.001
f 41/21/6 40/22/6 39/23/6 42/24/6
usemtl top
f 6/25/7 2/26/7 1/27/7 5/28/7
f 14/29/7 10/30/7 9/31/7 13/32/7
f 22/33/7 18/34/7 17/35/7 21/36/7
f 30/37/7 26/38/7 25/39/7 29/40/7
usemtl top_NONE
f 4/41/6 8/42/6 7/43/6 3/44/6
f 12/45/6 16/46/6 15/47/6 11/48/6
f 20/49/6 24/50/6 23/51/6 19/52/6
usemtl inside
f 28/53/6 32/54/6 31/55/6 27/56/6
usemtl side
f 2/57/3 4/58/3 3/59/3 1/60/3
f 8/61/4 6/62/4 5/63/4 7/64/4
f 10/65/3 12/66/3 11/67/3 9/68/3
f 16/69/4 14/70/4 13/71/4 15/72/4
f 18/73/3 20/74/3 19/75/3 17/76/3
f 24/77/4 22/78/4 21/79/4 23/80/4
f 26/81/3 28/82/3 27/83/3 25/84/3
f 32/85/4 30/86/4 29/87/4 31/88/4
usemtl back.001
f 1/27/2 3/89/2 7/90/2 5/28/2
f 9/91/2 11/92/2 15/93/2 13/94/2
f 17/95/2 19/96/2 23/97/2 21/98/2
f 25/99/2 27/100/2 31/101/2 29/102/2
usemtl front
f 6/103/8 8/104/8 4/105/8 2/106/8
f 14/107/8 16/108/8 12/109/8 10/110/8
f 22/111/8 24/112/8 20/113/8 18/114/8
f 30/115/8 32/116/8 28/117/8 26/118/8
l 33 34
l 43 44
