# Blender v2.76 (sub 0) OBJ File: 'fence_gate_open.blend'
# www.blender.org
mtllib doors_fence_gate_open.mtl
o Cube_Cube.001
v -0.625000 0.500100 0.125000
v -0.625000 0.500100 -0.125000
v -0.625000 -0.500000 -0.125000
v -0.625000 -0.500000 0.125000
v -0.375000 0.500100 -0.125000
v -0.375000 -0.500000 -0.125000
v -0.375000 0.500100 0.125000
v -0.375000 -0.500000 0.125000
v 0.375000 0.500100 0.125000
v 0.375000 0.500100 -0.125000
v 0.375000 -0.500000 -0.125000
v 0.375000 -0.500000 0.125000
v 0.625000 0.500100 -0.125000
v 0.625000 -0.500000 -0.125000
v 0.625000 0.500100 0.125000
v 0.625000 -0.500000 0.125000
v 0.559859 0.312500 -0.872359
v 0.559859 0.312500 -0.122359
v 0.559859 0.187500 -0.122359
v 0.559859 0.187500 -0.872359
v 0.434859 0.312500 -0.122359
v 0.434859 0.312500 -0.872359
v 0.434859 0.187500 -0.872359
v 0.434859 0.187500 -0.122359
v 0.559859 0.187363 -0.653701
v 0.559859 -0.187304 -0.122294
v 0.559859 -0.343683 -0.122379
v 0.559859 0.187348 -0.872190
v 0.434859 -0.187304 -0.122294
v 0.434859 0.187363 -0.653701
v 0.434859 0.187348 -0.872190
v 0.434859 -0.343683 -0.122379
vt 0.375000 0.000000
vt 0.625000 -0.000000
vt 0.625000 1.000000
vt 0.375000 1.000000
vt 0.375000 0.250000
vt 0.625000 0.250000
vt 0.375000 0.750000
vt 0.625000 0.750000
vt 0.625000 0.812500
vt 1.000000 0.812500
vt 1.000000 0.687500
vt 0.625000 0.687500
vt 0.000000 1.000000
vt 0.250000 1.000000
vt 0.250000 0.750000
vt 0.000000 0.750000
vn -1.000000 0.000000 0.000000
vn 0.000000 0.000000 -1.000000
vn 1.000000 0.000000 0.000000
vn 0.000000 -0.000000 1.000000
vn 0.000000 -1.000000 0.000000
vn 0.000000 1.000000 0.000000
vn 0.000000 -0.816100 -0.578000
vn 0.000000 0.817300 0.576200
usemtl stone
s 1
f 1/1/1 2/2/1 3/3/1 4/4/1
f 2/3/2 5/4/2 6/1/2 3/2/2
f 5/3/3 7/4/3 8/1/3 6/2/3
f 7/3/4 1/4/4 4/1/4 8/2/4
f 4/5/5 3/1/5 6/2/5 8/6/5
f 7/4/6 5/7/6 2/8/6 1/3/6
f 9/3/1 10/4/1 11/1/1 12/2/1
f 10/3/2 13/4/2 14/1/2 11/2/2
f 13/3/3 15/4/3 16/1/3 14/2/3
f 15/3/4 9/4/4 12/1/4 16/2/4
f 12/5/5 11/1/5 14/2/5 16/6/5
f 15/4/6 13/7/6 10/8/6 9/3/6
usemtl wood
f 17/9/3 18/10/3 19/11/3 20/12/3
f 21/9/1 22/10/1 23/11/1 24/12/1
f 23/9/5 20/12/5 19/11/5 24/10/5
f 21/10/6 18/11/6 17/12/6 22/9/6
f 25/9/3 26/10/3 27/11/3 28/12/3
f 29/10/1 30/9/1 31/12/1 32/11/1
f 31/9/7 28/12/7 27/11/7 32/10/7
f 29/10/8 26/11/8 25/12/8 30/9/8
f 23/13/2 22/14/2 17/15/2 20/16/2
