# Blender v2.76 (sub 0) OBJ File: 'gate work.blend'
# www.blender.org
mtllib doors_fencegate_closed.mtl
o Cube_Cube.001
v -0.625000 0.500100 0.125000
v -0.625000 0.500100 -0.125000
v -0.625000 -0.500000 -0.125000
v -0.625000 -0.500000 0.125000
v -0.375000 0.500100 -0.125000
v -0.375000 -0.500000 -0.125000
v -0.375000 0.500100 0.125000
v -0.375000 -0.500000 0.125000
v 0.375000 0.500100 0.125000
v 0.375000 0.500100 -0.125000
v 0.375000 -0.500000 -0.125000
v 0.375000 -0.500000 0.125000
v 0.625000 0.500100 -0.125000
v 0.625000 -0.500000 -0.125000
v 0.625000 0.500100 0.125000
v 0.625000 -0.500000 0.125000
v -0.375000 0.312500 -0.062500
v 0.375000 0.312500 -0.062500
v 0.375000 0.187500 -0.062500
v -0.375000 0.187500 -0.062500
v 0.375000 0.312500 0.062500
v -0.375000 0.312500 0.062500
v -0.375000 0.187500 0.062500
v 0.375000 0.187500 0.062500
v -0.156342 0.187363 -0.062500
v 0.375065 -0.187304 -0.062500
v 0.374981 -0.343683 -0.062500
v -0.374831 0.187348 -0.062500
v 0.375065 -0.187304 0.062500
v -0.156342 0.187363 0.062500
v -0.374831 0.187348 0.062500
v 0.374981 -0.343683 0.062500
vt 0.000000 0.750000
vt 0.000000 0.500000
vt 1.000000 0.500000
vt 1.000000 0.750000
vt 1.000000 1.000000
vt -0.000000 1.000000
vt 1.000000 -0.000000
vt 1.000000 0.250000
vt 0.000000 0.250000
vt -0.000000 0.000000
vt 0.250000 0.000000
vt 0.250000 0.250000
vt 0.250000 0.750000
vt 0.250000 1.000000
vt 0.500000 -0.000000
vt 0.500000 0.250000
vt 0.500000 0.750000
vt 0.500000 1.000000
vt 0.050039 0.000051
vt 0.925879 0.107675
vt 0.902187 0.097360
vt 0.066283 0.009166
vt 0.999949 0.107675
vt 0.000051 0.002178
vt 0.048495 0.014690
vt 0.927510 0.092217
vt 0.218951 0.128459
vt 0.810555 0.132408
vt 0.838849 0.123848
vt 0.000051 0.128458
vt 0.779613 0.112871
vt 0.231182 0.131990
vt 0.052161 0.148762
vt 0.827781 0.107777
vn -1.000000 0.000000 0.000000
vn 0.000000 0.000000 -1.000000
vn 1.000000 0.000000 0.000000
vn 0.000000 -0.000000 1.000000
vn 0.000000 -1.000000 0.000000
vn 0.000000 1.000000 0.000000
vn -0.578000 -0.816100 0.000000
vn 0.576200 0.817300 0.000000
usemtl granite
s 1
f 1/1/1 2/2/1 3/3/1 4/4/1
f 2/4/2 5/5/2 6/6/2 3/1/2
f 5/7/3 7/8/3 8/9/3 6/10/3
f 7/2/4 1/9/4 4/8/4 8/3/4
f 4/9/5 3/10/5 6/11/5 8/12/5
f 7/6/6 5/1/6 2/13/6 1/14/6
f 9/1/1 10/2/1 11/3/1 12/4/1
f 10/2/2 13/9/2 14/8/2 11/3/2
f 13/7/3 15/8/3 16/9/3 14/10/3
f 15/4/4 9/5/4 12/6/4 16/1/4
f 12/12/5 11/11/5 14/15/5 16/16/5
f 15/14/6 13/13/6 10/17/6 9/18/6
usemtl wood
f 17/19/2 18/20/2 19/21/2 20/22/2
f 21/23/4 22/24/4 23/25/4 24/26/4
f 23/25/5 20/22/5 19/21/5 24/26/5
f 21/23/6 18/20/6 17/19/6 22/24/6
f 25/27/2 26/28/2 27/29/2 28/30/2
f 29/31/4 30/32/4 31/33/4 32/34/4
f 31/33/7 28/30/7 27/29/7 32/34/7
f 29/31/8 26/28/8 25/27/8 30/32/8
