# Blender v2.76 (sub 0) OBJ File: 'gate work.blend'
# www.blender.org
mtllib doors_fencegate_closed.mtl
o Cube_Cube.001
v -0.625000 0.500100 0.125000
v -0.625000 0.500100 -0.125000
v -0.625000 -0.500000 -0.125000
v -0.625000 -0.500000 0.125000
v -0.375000 0.500100 -0.125000
v -0.375000 -0.500000 -0.125000
v -0.375000 0.500100 0.125000
v -0.375000 -0.500000 0.125000
v 0.375000 0.500100 0.125000
v 0.375000 0.500100 -0.125000
v 0.375000 -0.500000 -0.125000
v 0.375000 -0.500000 0.125000
v 0.625000 0.500100 -0.125000
v 0.625000 -0.500000 -0.125000
v 0.625000 0.500100 0.125000
v 0.625000 -0.500000 0.125000
v -0.375000 0.312500 -0.062500
v 0.375000 0.312500 -0.062500
v 0.375000 0.187500 -0.062500
v -0.375000 0.187500 -0.062500
v 0.375000 0.312500 0.062500
v -0.375000 0.312500 0.062500
v -0.375000 0.187500 0.062500
v 0.375000 0.187500 0.062500
v -0.156342 0.187363 -0.062500
v 0.375065 -0.187304 -0.062500
v 0.374981 -0.343683 -0.062500
v -0.374831 0.187348 -0.062500
v 0.375065 -0.187304 0.062500
v -0.156342 0.187363 0.062500
v -0.374831 0.187348 0.062500
v 0.374981 -0.343683 0.062500
vt 0.000000 0.750000
vt 0.000000 0.500000
vt 1.000000 0.500000
vt 1.000000 0.750000
vt 1.000000 1.000000
vt 0.000000 1.000000
vt 1.000000 0.000000
vt 1.000000 0.250000
vt 0.000000 0.250000
vt 0.000000 0.000000
vt 1.000000 0.375000
vt 0.000000 0.375000
vt 0.000000 0.625000
vt 1.000000 0.625000
vt 0.000000 0.125000
vt 1.000000 0.125000
vt 1.000000 0.875000
vt 0.000000 0.875000
vt 0.000051 0.128458
vn -1.000000 0.000000 0.000000
vn 0.000000 0.000000 -1.000000
vn 1.000000 0.000000 0.000000
vn 0.000000 -0.000000 1.000000
vn 0.000000 -1.000000 0.000000
vn 0.000000 1.000000 0.000000
vn -0.578000 -0.816100 0.000000
vn 0.576200 0.817300 0.000000
usemtl granite
s 1
f 1/1/1 2/2/1 3/3/1 4/4/1
f 2/4/2 5/5/2 6/6/2 3/1/2
f 5/7/3 7/8/3 8/9/3 6/10/3
f 7/2/4 1/9/4 4/8/4 8/3/4
f 4/6/5 3/10/5 6/7/5 8/5/5
f 7/6/6 5/10/6 2/7/6 1/5/6
f 9/1/1 10/2/1 11/3/1 12/4/1
f 10/2/2 13/9/2 14/8/2 11/3/2
f 13/7/3 15/8/3 16/9/3 14/10/3
f 15/4/4 9/5/4 12/6/4 16/1/4
f 12/6/5 11/10/5 14/7/5 16/5/5
f 15/6/6 13/10/6 10/7/6 9/5/6
usemtl wood
f 17/2/2 18/3/2 19/11/2 20/12/2
f 21/4/4 22/1/4 23/13/4 24/14/4
f 23/9/5 20/15/5 19/16/5 24/8/5
f 21/5/6 18/17/6 17/18/6 22/6/6
f 25/6/2 26/5/2 27/17/2 28/18/2
f 29/11/4 30/12/4 31/2/4 32/3/4
f 31/9/7 28/19/7 27/16/7 32/8/7
f 29/11/8 26/3/8 25/2/8 30/12/8
